<?xml version="1.0" standalone="no"?>
<!DOCTYPE svg PUBLIC "-//W3C//DTD SVG 20010904//EN"
 "http://www.w3.org/TR/2001/REC-SVG-20010904/DTD/svg10.dtd">
<svg version="1.0" xmlns="http://www.w3.org/2000/svg"
 width="260.000000pt" height="260.000000pt" viewBox="0 0 260.000000 260.000000"
 preserveAspectRatio="xMidYMid meet">
<metadata>
Created by potrace 1.14, written by Peter Selinger 2001-2017
</metadata>
<g transform="translate(0.000000,260.000000) scale(0.100000,-0.100000)"
fill="#000000" stroke="none">
<path d="M1255 2333 c-22 -7 -49 -23 -59 -33 -20 -19 -20 -20 3 -44 l23 -25
-53 -26 c-117 -59 -125 -76 -173 -356 -14 -80 -30 -158 -36 -173 -7 -20 -7
-39 1 -66 9 -31 9 -46 -1 -71 -21 -49 -57 -88 -79 -82 -23 6 -127 -46 -167
-84 -21 -19 -33 -42 -38 -72 -10 -63 32 -142 134 -256 l81 -90 -6 -65 c-3 -36
-8 -78 -11 -95 l-6 -30 19 26 c17 25 43 29 43 7 0 -6 -7 -7 -16 -4 -14 5 -15
4 -4 -9 18 -21 35 -19 65 9 24 22 29 23 56 12 53 -22 69 -42 71 -88 0 -24 2
-54 3 -68 9 -116 8 -180 -4 -199 -5 -8 -41 -19 -82 -25 -44 -7 -74 -16 -77
-25 -3 -9 2 -11 14 -8 11 3 39 7 64 9 64 4 59 -18 -17 -67 -34 -22 -66 -50
-72 -63 -14 -29 -14 -62 -1 -62 6 0 10 10 10 23 0 14 12 33 31 47 17 14 41 34
52 46 12 12 31 24 43 28 26 8 75 82 68 101 -4 8 -3 23 1 33 4 9 6 74 5 144
l-1 128 73 -5 73 -5 -45 22 -45 23 50 2 c84 5 97 10 83 33 -7 10 -15 15 -18
10 -9 -15 -64 18 -82 50 -16 29 -16 30 3 40 11 6 19 21 19 35 0 14 5 25 10 25
6 0 3 14 -6 33 l-17 32 22 -20 c17 -14 21 -27 17 -47 -3 -16 -2 -28 2 -29 52
-6 52 -6 46 13 -3 11 3 34 15 54 25 42 26 51 6 34 -12 -10 -15 -10 -15 2 0 25
9 26 63 12 66 -17 91 -17 51 0 -40 18 -52 36 -24 36 11 0 20 6 19 13 -3 24 1
37 13 37 14 0 100 64 153 114 21 20 44 35 50 32 6 -2 22 5 36 15 l24 19 -27
-9 c-21 -8 -31 -7 -42 4 -12 12 -15 12 -19 0 -3 -7 -19 -13 -34 -13 -15 0 -35
-1 -43 -3 -8 -2 -15 3 -15 11 0 10 9 14 28 13 15 -1 27 2 27 6 0 18 -27 18
-65 0 -41 -20 -62 -25 -33 -8 10 5 15 16 12 24 -6 15 4 19 38 16 9 -1 19 7 23
18 5 16 33 37 40 29 10 -12 14 -48 6 -48 -6 0 -11 -4 -11 -9 0 -7 31 -8 69 -2
2 1 -3 9 -12 19 -13 15 -14 21 -4 31 9 10 9 11 -4 6 -10 -4 -20 -2 -24 4 -3 6
1 11 9 11 10 0 15 8 13 21 -1 12 4 24 11 26 8 3 12 -7 12 -31 0 -32 3 -36 26
-36 23 0 25 -3 20 -25 -7 -28 -4 -30 25 -15 26 15 23 80 -5 80 -12 0 -16 5
-12 16 3 9 6 46 6 84 0 53 3 69 15 72 13 2 11 10 -10 40 -14 20 -25 43 -25 51
0 8 -7 17 -15 21 -8 3 -15 12 -15 20 0 55 -126 185 -164 170 -9 -3 -27 4 -42
15 l-27 21 34 0 c26 0 30 3 21 12 -7 7 -20 13 -29 13 -21 0 -63 56 -45 62 6 3
12 11 12 19 0 20 20 17 21 -3 1 -10 2 -27 3 -38 2 -31 31 -24 34 8 3 23 -5 36
-35 62 -41 37 -35 43 18 22 19 -8 55 -22 81 -31 33 -12 54 -28 69 -52 29 -47
33 -38 7 15 -26 53 -69 86 -144 110 -54 17 -59 20 -56 45 2 15 -2 33 -8 41
-14 16 -5 35 16 35 21 0 17 18 -7 31 -15 8 -19 8 -15 0 4 -6 2 -11 -3 -11 -6
0 -11 5 -11 11 0 7 -17 10 -45 7 -33 -2 -44 0 -40 9 6 16 -18 15 -70 -4z m80
-216 c42 -69 46 -79 40 -95 -8 -20 -6 -28 6 -25 4 2 6 -4 3 -12 -4 -10 0 -15
15 -15 11 0 25 -10 32 -21 10 -20 9 -21 -17 -15 -15 4 -33 14 -39 23 -7 10
-17 13 -25 8 -9 -5 -10 -2 -6 13 11 34 -10 99 -39 125 -16 14 -25 29 -21 35
12 20 30 13 51 -21z m-5 -173 c0 -8 -4 -12 -10 -9 -5 3 -10 10 -10 16 0 5 5 9
10 9 6 0 10 -7 10 -16z m248 -108 c37 -33 61 -89 74 -169 11 -74 4 -163 -12
-138 -5 9 -9 10 -14 2 -4 -6 -21 -18 -37 -27 -27 -13 -47 -14 -167 -3 -102 8
-140 15 -149 27 -17 21 -16 35 2 28 8 -3 36 6 62 19 25 14 63 25 84 25 68 0
91 54 43 105 -25 27 -25 28 -7 49 43 48 73 96 58 90 -10 -4 -15 0 -15 10 0 22
46 11 78 -18z m-328 -3 c0 -5 20 -21 45 -36 43 -28 64 -49 28 -28 -14 7 -20 4
-30 -17 -9 -19 -11 -21 -7 -5 3 15 -4 31 -26 53 -32 33 -36 40 -20 40 6 0 10
-3 10 -7z m3 -120 c-7 -2 -19 -2 -25 0 -7 3 -2 5 12 5 14 0 19 -2 13 -5z
m-193 -265 c-5 -42 -12 -88 -15 -101 -4 -14 -2 -28 4 -31 16 -10 13 -46 -3
-52 -8 -3 -25 0 -37 7 l-23 12 22 8 c13 5 22 17 22 30 0 18 -2 19 -15 9 -21
-17 -20 11 1 51 9 18 18 68 21 122 2 51 7 99 10 107 13 32 22 -89 13 -162z
m47 120 c-3 -8 -6 -5 -6 6 -1 11 2 17 5 13 3 -3 4 -12 1 -19z m103 -38 c18
-12 2 -12 -25 0 -13 6 -15 9 -5 9 8 0 22 -4 30 -9z m430 -30 c0 -5 -4 -10 -10
-10 -5 0 -10 5 -10 10 0 6 5 10 10 10 6 0 10 -4 10 -10z m-85 -38 c-3 -3 -17
-6 -31 -7 -22 -1 -23 1 -9 11 16 12 52 8 40 -4z m60 8 c4 -6 -5 -10 -20 -10
-15 0 -24 4 -20 10 3 6 12 10 20 10 8 0 17 -4 20 -10z m-15 -170 c0 -19 -48
-34 -72 -23 -22 10 -22 11 12 21 47 14 60 14 60 2z m-105 -46 c29 -5 33 -9 24
-21 -9 -9 -15 -11 -23 -3 -17 17 -26 12 -26 -15 0 -14 -4 -25 -10 -25 -5 0
-10 14 -10 30 0 21 -5 30 -16 30 -8 0 -12 5 -9 11 4 6 13 8 20 5 8 -3 30 -8
50 -12z m-70 -75 c4 -6 -1 -16 -11 -24 -16 -12 -19 -12 -22 1 -2 8 -10 14 -18
14 -8 0 -14 5 -14 10 0 13 57 13 65 -1z m-125 -128 c0 -5 7 -11 15 -13 13 -2
12 -7 -6 -22 -17 -14 -21 -15 -16 -3 3 9 -1 18 -9 21 -9 3 -12 10 -9 16 8 13
25 13 25 1z"/>
<path d="M1541 1766 c-15 -17 1 -56 23 -56 23 0 41 30 29 48 -14 23 -37 26
-52 8z"/>
<path d="M1540 2069 c0 -12 -7 -27 -17 -34 -21 -16 -7 -38 19 -29 15 4 19 2
18 -13 -4 -36 1 -43 43 -63 28 -14 34 -15 20 -4 -13 9 -23 23 -23 30 0 8 -10
15 -22 15 -17 1 -19 2 -5 6 23 6 22 40 -3 81 -23 37 -30 40 -30 11z"/>
<path d="M1673 1959 c4 -13 7 -30 7 -36 0 -7 4 -13 8 -13 12 0 2 59 -11 67 -6
4 -8 -2 -4 -18z"/>
<path d="M1752 1377 c-21 -27 -21 -47 -2 -59 11 -7 20 -19 20 -28 0 -25 28 22
31 54 3 22 -1 30 -18 37 -14 5 -25 4 -31 -4z"/>
<path d="M1626 1249 c-13 -26 -13 -29 -1 -19 8 7 15 19 15 27 0 9 6 13 15 9 8
-3 15 -1 15 4 0 22 -30 8 -44 -21z"/>
<path d="M1848 1274 c-5 -4 -8 -21 -8 -38 1 -26 2 -28 11 -13 11 19 8 63 -3
51z"/>
<path d="M1780 1266 c0 -16 21 -56 30 -56 17 0 11 24 -10 43 -11 9 -20 15 -20
13z"/>
<path d="M1800 1151 c0 -10 7 -24 15 -31 12 -10 16 -9 21 4 6 16 -11 46 -27
46 -5 0 -9 -8 -9 -19z"/>
<path d="M1255 930 c-7 -12 18 -24 37 -18 8 3 5 9 -9 16 -14 8 -24 9 -28 2z"/>
<path d="M1260 871 c0 -5 9 -11 21 -14 16 -4 18 -3 8 9 -13 16 -29 19 -29 5z"/>
<path d="M984 784 c-17 -14 -17 -15 -1 -10 10 3 23 6 28 6 5 0 9 5 9 10 0 14
-13 12 -36 -6z"/>
<path d="M1395 750 c-4 -6 -9 -71 -12 -145 -6 -129 -7 -134 -27 -132 -16 2
-22 -4 -24 -25 -4 -36 14 -68 38 -68 21 0 27 -24 10 -35 -13 -8 -13 -28 -1
-23 6 1 20 19 33 38 27 39 40 42 48 9 4 -15 13 -23 31 -23 14 -1 61 -24 104
-52 102 -64 109 -67 137 -45 19 16 20 21 9 35 -7 9 -22 16 -32 16 -11 0 -19 4
-19 9 0 10 -62 48 -152 93 -45 22 -67 28 -91 23 -31 -7 -31 -6 -12 9 15 12 17
18 8 24 -18 11 -30 116 -23 192 6 65 -9 126 -25 100z"/>
<path d="M1577 434 c-8 -8 1 -24 14 -24 5 0 9 7 9 15 0 15 -12 20 -23 9z"/>
<path d="M1680 421 c0 -11 -5 -23 -12 -27 -8 -5 -9 0 -6 14 7 27 -8 29 -22 3
-5 -11 -10 -22 -10 -24 0 -9 118 -19 139 -12 26 8 18 25 -11 25 -14 0 -18 5
-14 15 8 23 -10 18 -27 -7 l-16 -23 0 28 c-1 30 -21 38 -21 8z"/>
<path d="M1770 424 c0 -17 22 -14 28 4 2 7 -3 12 -12 12 -9 0 -16 -7 -16 -16z"/>
<path d="M830 393 c0 -17 19 -35 29 -29 18 12 12 36 -9 36 -11 0 -20 -3 -20
-7z"/>
<path d="M1122 368 c-19 -19 -15 -40 7 -33 14 4 33 -10 76 -55 32 -33 63 -60
70 -60 6 0 17 12 24 26 l11 26 20 -24 c17 -20 21 -21 30 -8 10 15 5 48 -11 64
-5 6 -16 3 -28 -8 -19 -17 -20 -17 -31 3 -6 12 -20 21 -31 21 -11 0 -32 14
-46 30 -26 32 -69 40 -91 18z m168 -98 c0 -5 -4 -10 -10 -10 -5 0 -10 5 -10
10 0 6 5 10 10 10 6 0 10 -4 10 -10z"/>
<path d="M794 354 c3 -9 6 -18 6 -20 0 -2 7 -4 15 -4 13 0 14 4 5 20 -13 24
-35 27 -26 4z"/>
<path d="M911 359 c-63 -12 -81 -33 -21 -24 94 14 110 17 110 26 0 11 -29 10
-89 -2z"/>
</g>
</svg>
